<svg class="map map--2" viewBox="0 100 1500 1000" width="175%" height="175%" preserveAspectRatio="xMidYMid meet">
								<title>Map Level 2</title>
								<defs><style>.cls-1,.cls-2,.cls-8,.cls-9{fill:#f0f0f0;}.cls-1,.cls-6{stroke:#6b6b6b;}.cls-1,.cls-10,.cls-11,.cls-12,.cls-2,.cls-6,.cls-8,.cls-9{stroke-miterlimit:10;}.cls-1,.cls-10,.cls-2,.cls-6{stroke-width:10px;}.cls-10,.cls-2,.cls-8,.cls-9{stroke:#7d7d86;}.cls-3{fill:#bdbdbd;}.cls-4{fill:#80af6d;}.cls-5{fill:#8db175;}.cls-10,.cls-11,.cls-12,.cls-6{fill:none;}.cls-7{fill:#c93f3f;}.cls-11,.cls-8{stroke-width:2px;}.cls-12,.cls-9{stroke-width:0.75px;}.cls-11,.cls-12{stroke:#616261;}.cls-13{fill:#a3a3a2;}</style></defs><title>Artboard 1</title><path class="cls-1" d="M765,381v40.67H675.67V676H445L297.71,651.11a486,486,0,0,1-108.13-31.49L57,563.67v-136H84.33V385H23V307.67H57V103H744V381Z"/><rect class="cls-2" x="675.67" y="421.67" width="68.33" height="254.33"/><rect class="cls-3" x="403.67" y="247.67" width="272" height="133.33"/><rect class="cls-3" x="696.67" y="247.67" width="47.33" height="88.33"/><rect class="cls-3" x="222.33" y="247.67" width="156.67" height="133.33"/><polygon class="cls-3" points="204.33 247.67 204.33 362.5 166.67 362.5 166.67 381 134.33 381 134.33 247.67 204.33 247.67"/><rect class="cls-3" x="134.33" y="107" width="35" height="154.67"/><rect class="cls-3" x="61.67" y="107" width="44" height="204.67"/><rect class="cls-3" x="181.67" y="107" width="140" height="110"/><rect class="cls-3" x="330" y="107" width="408.33" height="110"/><path class="cls-3" d="M675.67,453.67v102h-132v74l-64.86-1.23a167.94,167.94,0,0,1-19.53-1.53l-55.61-7.66V421.67H645v32Z"/><polygon class="cls-4" points="651.33 454 651.33 494.17 561.33 494.17 561.33 421.67 644.5 421.67 644.5 454 651.33 454"/><polygon class="cls-5" points="204.33 267 204.33 362.5 166.94 362.5 166.94 350.31 134.33 350.31 134.33 267 204.33 267"/><line class="cls-6" x1="57" y1="307.67" x2="57" y2="385"/><rect class="cls-7" x="134.33" y="350.31" width="32.61" height="30.69"/><rect class="cls-7" x="645" y="425.88" width="29.94" height="27.79"/><rect class="cls-2" x="744" y="299.25" width="35" height="81.75"/><line class="cls-8" x1="762.5" y1="324" x2="762.5" y2="358.63"/><line class="cls-9" x1="762.5" y1="324.75" x2="776.13" y2="324.75"/><line class="cls-9" x1="762.5" y1="327.81" x2="776.13" y2="327.81"/><line class="cls-9" x1="762.5" y1="330.88" x2="776.13" y2="330.88"/><line class="cls-9" x1="762.5" y1="333.94" x2="776.13" y2="333.94"/><line class="cls-9" x1="762.5" y1="337" x2="776.13" y2="337"/><line class="cls-9" x1="762.5" y1="340.06" x2="776.13" y2="340.06"/><line class="cls-9" x1="762.5" y1="343.13" x2="776.13" y2="343.13"/><line class="cls-9" x1="762.5" y1="346.19" x2="776.13" y2="346.19"/><line class="cls-9" x1="762.5" y1="349.25" x2="776.13" y2="349.25"/><line class="cls-9" x1="762.5" y1="352.31" x2="776.13" y2="352.31"/><line class="cls-9" x1="762.5" y1="355.38" x2="776.13" y2="355.38"/><line class="cls-9" x1="747.88" y1="327.5" x2="761.5" y2="327.5"/><line class="cls-9" x1="747.88" y1="330.56" x2="761.5" y2="330.56"/><line class="cls-9" x1="747.88" y1="333.63" x2="761.5" y2="333.63"/><line class="cls-9" x1="747.88" y1="336.69" x2="761.5" y2="336.69"/><line class="cls-9" x1="747.88" y1="339.75" x2="761.5" y2="339.75"/><line class="cls-9" x1="747.88" y1="342.81" x2="761.5" y2="342.81"/><line class="cls-9" x1="747.88" y1="345.88" x2="761.5" y2="345.88"/><line class="cls-9" x1="747.88" y1="348.94" x2="761.5" y2="348.94"/><line class="cls-9" x1="747.88" y1="352" x2="761.5" y2="352"/><line class="cls-9" x1="747.88" y1="355.06" x2="761.5" y2="355.06"/><line class="cls-9" x1="747.88" y1="358.13" x2="761.5" y2="358.13"/><rect class="cls-10" x="23" y="307.67" width="34" height="76.27"/><line class="cls-11" x1="40.97" y1="326.94" x2="40.97" y2="361.56"/><line class="cls-12" x1="40.97" y1="327.69" x2="54.21" y2="327.69"/><line class="cls-12" x1="40.97" y1="330.75" x2="54.21" y2="330.75"/><line class="cls-12" x1="40.97" y1="333.81" x2="54.21" y2="333.81"/><line class="cls-12" x1="40.97" y1="336.87" x2="54.21" y2="336.87"/><line class="cls-12" x1="40.97" y1="339.94" x2="54.21" y2="339.94"/><line class="cls-12" x1="40.97" y1="343" x2="54.21" y2="343"/><line class="cls-12" x1="40.97" y1="346.06" x2="54.21" y2="346.06"/><line class="cls-12" x1="40.97" y1="349.12" x2="54.21" y2="349.12"/><line class="cls-12" x1="40.97" y1="352.19" x2="54.21" y2="352.19"/><line class="cls-12" x1="40.97" y1="355.25" x2="54.21" y2="355.25"/><line class="cls-12" x1="40.97" y1="358.31" x2="54.21" y2="358.31"/><line class="cls-12" x1="26.76" y1="330.44" x2="40" y2="330.44"/><line class="cls-12" x1="26.76" y1="333.5" x2="40" y2="333.5"/><line class="cls-12" x1="26.76" y1="336.56" x2="40" y2="336.56"/><line class="cls-12" x1="26.76" y1="339.62" x2="40" y2="339.62"/><line class="cls-12" x1="26.76" y1="342.69" x2="40" y2="342.69"/><line class="cls-12" x1="26.76" y1="345.75" x2="40" y2="345.75"/><line class="cls-12" x1="26.76" y1="348.81" x2="40" y2="348.81"/><line class="cls-12" x1="26.76" y1="351.87" x2="40" y2="351.87"/><line class="cls-12" x1="26.76" y1="354.94" x2="40" y2="354.94"/><line class="cls-12" x1="26.76" y1="358" x2="40" y2="358"/><line class="cls-12" x1="26.76" y1="361.06" x2="40" y2="361.06"/><line class="cls-12" x1="709.83" y1="456" x2="741" y2="456"/><line class="cls-12" x1="709.83" y1="459.67" x2="741" y2="459.67"/><line class="cls-12" x1="709.83" y1="463.33" x2="741" y2="463.33"/><line class="cls-12" x1="709.83" y1="467" x2="741" y2="467"/><line class="cls-12" x1="709.83" y1="470.67" x2="741" y2="470.67"/><line class="cls-12" x1="709.83" y1="474.33" x2="741" y2="474.33"/><line class="cls-12" x1="709.83" y1="478" x2="741" y2="478"/><line class="cls-12" x1="709.83" y1="481.67" x2="741" y2="481.67"/><line class="cls-12" x1="709.83" y1="485.33" x2="741" y2="485.33"/><line class="cls-12" x1="709.83" y1="489" x2="741" y2="489"/><line class="cls-12" x1="709.83" y1="492.67" x2="741" y2="492.67"/><line class="cls-12" x1="709.83" y1="496.33" x2="741" y2="496.33"/><line class="cls-12" x1="709.83" y1="500" x2="741" y2="500"/><line class="cls-12" x1="709.83" y1="503.67" x2="741" y2="503.67"/><line class="cls-12" x1="709.83" y1="507.33" x2="741" y2="507.33"/><line class="cls-12" x1="709.83" y1="511" x2="741" y2="511"/><line class="cls-12" x1="709.83" y1="514.67" x2="741" y2="514.67"/><line class="cls-12" x1="709.83" y1="518.33" x2="741" y2="518.33"/><line class="cls-12" x1="709.83" y1="522" x2="741" y2="522"/><line class="cls-12" x1="709.83" y1="525.67" x2="741" y2="525.67"/><line class="cls-12" x1="709.83" y1="529.33" x2="741" y2="529.33"/><line class="cls-12" x1="709.83" y1="533" x2="741" y2="533"/><line class="cls-12" x1="709.83" y1="536.67" x2="741" y2="536.67"/><line class="cls-12" x1="709.83" y1="540.33" x2="741" y2="540.33"/><line class="cls-12" x1="709.83" y1="544" x2="741" y2="544"/><line class="cls-12" x1="709.83" y1="547.67" x2="741" y2="547.67"/><line class="cls-12" x1="709.83" y1="551.33" x2="741" y2="551.33"/><line class="cls-12" x1="709.83" y1="555" x2="741" y2="555"/><line class="cls-12" x1="709.83" y1="558.67" x2="741" y2="558.67"/><line class="cls-12" x1="709.83" y1="562.33" x2="741" y2="562.33"/><line class="cls-12" x1="709.83" y1="566" x2="741" y2="566"/><line class="cls-12" x1="709.83" y1="569.67" x2="741" y2="569.67"/><line class="cls-12" x1="709.83" y1="573.33" x2="741" y2="573.33"/><line class="cls-12" x1="709.83" y1="577" x2="741" y2="577"/><line class="cls-12" x1="709.83" y1="580.67" x2="741" y2="580.67"/><line class="cls-12" x1="709.83" y1="584.33" x2="741" y2="584.33"/><line class="cls-12" x1="709.83" y1="588" x2="741" y2="588"/><line class="cls-12" x1="709.83" y1="591.67" x2="741" y2="591.67"/><line class="cls-12" x1="709.83" y1="595.33" x2="741" y2="595.33"/><line class="cls-11" x1="709.83" y1="453.67" x2="709.83" y2="595.33"/><polygon class="cls-3" points="387.5 425.88 387.5 618.25 277.25 590 277.25 569.67 214.69 569.67 134.33 531.5 134.33 460.5 108.5 460.5 108.5 584 57 563.67 57 425.88 387.5 425.88"/><rect class="cls-13" x="55.75" y="425.88" width="1.25" height="34.62"/><rect class="cls-3" x="559.25" y="588" width="116.42" height="41.67"/><polygon class="cls-3" points="347.25 626.5 339.39 658.15 445 676 675.67 676 675.67 645 608.75 645 608.75 653.75 574 653.75 574 646 466.5 646 347.25 626.5"/><polygon class="cls-3" points="128.18 593.71 146 558 222.67 593.71 219.67 601 280.67 622 283.33 614 315.33 622 306.19 652.54 219.62 631.14 128.18 593.71"/><path class="cls-10 map__outline" d="M744,103V381h22.17L765,421.67H675.67V676H445L297.71,651.11a486,486,0,0,1-108.13-31.49L57,563.67v-136H84.33V385H23V307.67H57V103Z"/>
							</svg>